<svg xmlns="http://www.w3.org/2000/svg" viewBox="0 0 192 192">
	<path fill="#f15a22" d="M160.39 101.47a39.3 39.3 0 0 0-6.57-5 52.89 52.89 0 0 0-12.6-5.45 41.11 41.11 0 0 0 3.94-2.1 39.77 39.77 0 0 0 6.59-5c7.72-7.3 14.1-14.61 14.1-30.21s-6.38-22.91-14.11-30.21a39.3 39.3 0 0 0-6.57-5c-9.88-6-24-9.16-43.11-9.53L24.3 9v113.87c0 21.81 5 37.14 15.27 46.86s26.84 14.36 52.11 14.53h21.61l1.09-.1c21.88-.84 36.53-5.42 46-14.39a41.74 41.74 0 0 0 2.88-3.08c7.61-8.94 11.73-16.53 11.73-31 0-13.85-4.64-24.69-14.61-34.13m-109.32-3h59.52a56.6 56.6 0 0 1 13.57 1.79 31.35 31.35 0 0 1 12.35 6.34 34.37 34.37 0 0 1 8.92 11.95c2.09 4.45 3.23 10.17 3.39 16.94-.16 6.85-1.3 12.59-3.39 17.06a34.29 34.29 0 0 1-8.92 11.94 31.11 31.11 0 0 1-12.35 6.34 56.73 56.73 0 0 1-13.75 1.8H89.79a56 56 0 0 1-14-1.8 31.21 31.21 0 0 1-12.35-6.34 34.07 34.07 0 0 1-8.92-11.94c-2.3-4.9-3.46-11.17-3.46-18.64V98.52zm85.71-31.67a34.54 34.54 0 0 1-8.93 11.94 31.25 31.25 0 0 1-12.35 6.34 56.44 56.44 0 0 1-13.56 1.79H51V56.11c0-6.2.07-11.6.22-16.08a36.57 36.57 0 0 1 1.67-10.61 12.48 12.48 0 0 1 4.23-6 17.07 17.07 0 0 1 8.05-2.78h36.74a56.26 56.26 0 0 1 13.56 1.78 31.36 31.36 0 0 1 12.35 6.34 34.49 34.49 0 0 1 8.93 11.94 38.84 38.84 0 0 1 3.23 13 38.92 38.92 0 0 1-3.23 13.18"/>
</svg>